<svg width="120" height="120" viewBox="0 0 120 120" fill="none" xmlns="http://www.w3.org/2000/svg">
<path d="M23.3799 103.354L13.7063 7.5H120L110.313 103.339L66.7886 114L23.3799 103.354Z" fill="#E44F26"/>
<path d="M66.853 105.853L102.026 97.2376L110.3 15.3391H66.853V105.853Z" fill="#F1662A"/>
<path d="M66.8531 50.8872H49.2451L48.031 38.8489H66.8531V27.092H33.4883L33.8069 30.249L37.0745 62.644H66.8531V50.8872V50.8872ZM66.8531 81.4185L66.7928 81.4337L51.9745 77.9002L51.0274 68.5243H37.6686L39.5327 86.9793L66.7928 93.6659L66.8531 93.6507V81.4185Z" fill="#EBEBEB"/>
<path d="M66.8057 50.8872V62.644H83.191L81.6498 77.8925L66.8057 81.4299V93.6621L94.0873 86.9793L94.2853 84.9938L97.4108 54.0442L97.738 50.8872H66.8057V50.8872ZM66.8057 27.092V38.8489H98.9478L99.2147 36.2092L99.8217 30.249L100.14 27.092H66.8057V27.092Z" fill="white"/>
</svg>
