<svg width="20" height="20" viewBox="0 0 20 20" fill="none" xmlns="http://www.w3.org/2000/svg">
<g filter="url(#filter0_d_22_137)">
<path d="M10 6.75C9.50555 6.75 9.0222 6.64003 8.61108 6.43401C8.19995 6.22798 7.87952 5.93514 7.6903 5.59253C7.50108 5.24992 7.45157 4.87292 7.54804 4.50921C7.6445 4.14549 7.8826 3.8114 8.23223 3.54918C8.58187 3.28695 9.02732 3.10838 9.51228 3.03603C9.99723 2.96368 10.4999 3.00081 10.9567 3.14273C11.4135 3.28464 11.804 3.52496 12.0787 3.83331C12.3534 4.14165 12.5 4.50416 12.5 4.875C12.4992 5.3721 12.2356 5.84867 11.7669 6.20017C11.2982 6.55167 10.6628 6.74941 10 6.75ZM10 3.75C9.70333 3.75 9.41332 3.81598 9.16665 3.9396C8.91997 4.06321 8.72771 4.23892 8.61418 4.44448C8.50065 4.65005 8.47095 4.87625 8.52882 5.09448C8.5867 5.31271 8.72956 5.51316 8.93934 5.6705C9.14912 5.82783 9.41639 5.93498 9.70737 5.97838C9.99834 6.02179 10.2999 5.99951 10.574 5.91437C10.8481 5.82922 11.0824 5.68502 11.2472 5.50002C11.412 5.31501 11.5 5.09751 11.5 4.875C11.4996 4.57672 11.3414 4.29075 11.0602 4.07983C10.779 3.86892 10.3977 3.7503 10 3.75Z" fill="#A7A7A7"/>
<path d="M10 11.25L5.78201 7.51912C5.7234 7.4631 5.66539 7.40673 5.60801 7.35C4.8875 6.63817 4.49826 5.76871 4.50001 4.875C4.50001 3.78098 5.07947 2.73177 6.11092 1.95818C7.14237 1.1846 8.54132 0.75 10 0.75C11.4587 0.75 12.8576 1.1846 13.8891 1.95818C14.9205 2.73177 15.5 3.78098 15.5 4.875C15.5018 5.7683 15.1127 6.63737 14.3925 7.34888L14.392 7.35C14.392 7.35 14.242 7.49775 14.2195 7.51763L10 11.25ZM6.40601 6.89813C6.40701 6.89813 6.52301 7.01362 6.54951 7.03837L10 10.0905L13.455 7.03425C13.477 7.01362 13.594 6.89738 13.5945 6.897C14.1831 6.31542 14.5012 5.60514 14.5 4.875C14.5 3.97989 14.0259 3.12145 13.182 2.48851C12.3381 1.85558 11.1935 1.5 10 1.5C8.80653 1.5 7.66194 1.85558 6.81803 2.48851C5.97411 3.12145 5.50001 3.97989 5.50001 4.875C5.49896 5.60559 5.81739 6.31628 6.40651 6.89813H6.40601Z" fill="#A7A7A7"/>
</g>
<defs>
<filter id="filter0_d_22_137" x="-2" y="0" width="24" height="20" filterUnits="userSpaceOnUse" color-interpolation-filters="sRGB">
<feFlood flood-opacity="0" result="BackgroundImageFix"/>
<feColorMatrix in="SourceAlpha" type="matrix" values="0 0 0 0 0 0 0 0 0 0 0 0 0 0 0 0 0 0 127 0" result="hardAlpha"/>
<feOffset dy="4"/>
<feGaussianBlur stdDeviation="2"/>
<feComposite in2="hardAlpha" operator="out"/>
<feColorMatrix type="matrix" values="0 0 0 0 0 0 0 0 0 0 0 0 0 0 0 0 0 0 0.25 0"/>
<feBlend mode="normal" in2="BackgroundImageFix" result="effect1_dropShadow_22_137"/>
<feBlend mode="normal" in="SourceGraphic" in2="effect1_dropShadow_22_137" result="shape"/>
</filter>
</defs>
</svg>
